<svg height="512" viewBox="0 0 64 64" width="512" xmlns="http://www.w3.org/2000/svg"><g id="time"><path d="m61 45v4a2.006 2.006 0 0 1 -2 2h-54a2.006 2.006 0 0 1 -2-2v-4z" fill="#c6c5ca"/><path d="m61 17v28h-58v-28a2.006 2.006 0 0 1 2-2h54a2.006 2.006 0 0 1 2 2z" fill="#00d7df"/><path d="m61 17v28h-3v-28a2.006 2.006 0 0 0 -2-2h3a2.006 2.006 0 0 1 2 2z" fill="#009698"/><path d="m41 57 3 4h-24l3-4h2 14z" fill="#c6c5ca"/><path d="m38 51 1 6h-14l1-6z" fill="#57a4ff"/><path d="m61 45v4a2.006 2.006 0 0 1 -2 2h-3a2.006 2.006 0 0 0 2-2v-4z" fill="#898890"/><path d="m38 51 1 2h-14l1-2z" fill="#2488ff"/><circle cx="32" cy="19" fill="#ffde55" r="16"/><path d="m48 19a16 16 0 0 1 -29.14 9.14 16.008 16.008 0 0 0 22.28-22.28 15.98 15.98 0 0 1 6.86 13.14z" fill="#ffcd00"/><path d="m52 23a16 16 0 0 1 -29.14 9.14 16.008 16.008 0 0 0 25.14-13.14 15.5 15.5 0 0 0 -.51-4h2.37a15.97 15.97 0 0 1 2.14 8z" fill="#009698"/><path d="m59 14h-10.75a17 17 0 0 0 -32.5 0h-10.75a3.009 3.009 0 0 0 -3 3v32a3.009 3.009 0 0 0 3 3h19.82l-.67 4h-1.15a1.014 1.014 0 0 0 -.8.4l-3 4a1 1 0 0 0 .8 1.6h24a1 1 0 0 0 .8-1.6l-3-4a1.014 1.014 0 0 0 -.8-.4h-1.15l-.67-4h19.82a3.009 3.009 0 0 0 3-3v-32a3.009 3.009 0 0 0 -3-3zm-41.95 4a14.915 14.915 0 0 1 1.5-5.61l2.56 1.48 1-1.74-2.57-1.48a15.165 15.165 0 0 1 4.11-4.11l1.48 2.57 1.74-1-1.48-2.56a14.915 14.915 0 0 1 5.61-1.5v2.95h2v-2.95a14.915 14.915 0 0 1 5.61 1.5l-1.48 2.56 1.74 1 1.48-2.57a15.165 15.165 0 0 1 4.11 4.11l-2.57 1.48 1 1.74 2.56-1.48a14.915 14.915 0 0 1 1.5 5.61h-2.95v2h2.95a14.915 14.915 0 0 1 -1.5 5.61l-2.56-1.48-1 1.74 2.57 1.48a15.165 15.165 0 0 1 -4.11 4.11l-1.48-2.57-1.74 1 1.48 2.56a14.915 14.915 0 0 1 -5.61 1.5v-2.95h-2v2.95a14.915 14.915 0 0 1 -5.61-1.5l1.48-2.56-1.74-1-1.48 2.57a15.165 15.165 0 0 1 -4.11-4.11l2.57-1.48-1-1.74-2.56 1.48a14.915 14.915 0 0 1 -1.5-5.61h2.95v-2zm23.45 40 1.5 2h-20l1.5-2zm-14.32-2 .67-4h10.3l.67 4zm33.82-7a1 1 0 0 1 -1 1h-54a1 1 0 0 1 -1-1v-3h56zm0-5h-56v-27a1 1 0 0 1 1-1h10.28a17.432 17.432 0 0 0 -.28 3 17 17 0 0 0 34 0 17.432 17.432 0 0 0 -.28-3h10.28a1 1 0 0 1 1 1z"/><path d="m31.5 19.865a1 1 0 0 0 1 0l7-4-1-1.733-5.5 3.145v-8.277h-2v10a1 1 0 0 0 .5.865z"/><path d="m6 40h16v2h-16z"/><path d="m46 32h2v2h-2z"/><path d="m42 36h16v2h-16z"/><path d="m42 40h16v2h-16z"/><path d="m50 32h8v2h-8z"/><path d="m16 32h2v2h-2z"/><path d="m6 36h16v2h-16z"/><path d="m6 32h8v2h-8z"/></g></svg>